<svg xmlns="http://www.w3.org/2000/svg" xmlns:xlink="http://www.w3.org/1999/xlink" xml:space="preserve" style="shape-rendering:geometricPrecision;text-rendering:geometricPrecision;image-rendering:optimizeQuality;" viewBox="0 0 20 20" x="0px" y="0px" fill-rule="evenodd" clip-rule="evenodd"><defs><style type="text/css">
   
    .fil1 {fill:black}
    .fil0 {fill:black;fill-rule:nonzero}
   
  </style></defs><g><path class="fil0" d="M4.0298 1.534l0.0069 0 12.4278 0c0.1473,0 0.2668,0.1195 0.2668,0.2668l0 0.0069 0 14.7789 1.191 0c0.1473,0 0.2668,0.1195 0.2668,0.2668l0 0.0069 0 1.2129c0,0.1473 -0.1195,0.2668 -0.2668,0.2668l-0.0069 0 -15.3434 0c-0.1473,0 -0.2668,-0.1195 -0.2668,-0.2668l0 -0.0069 0 -1.2129c0,-0.1473 0.1195,-0.2668 0.2668,-0.2668l0.0069 0 1.1841 0 0 -14.7858c0,-0.1473 0.1195,-0.2668 0.2668,-0.2668zm12.4417 15.5862l-0.007 0 -0.0069 0 -12.4278 0 -0.0069 0 -1.1841 0 0 0.6862 14.8167 0 0 -0.6862 -1.184 0zm-0.2738 -15.0526l-11.9011 0 0 14.519 11.9011 0 0 -14.519z"></path><path class="fil0" d="M5.6655 3.2298l0.007 0 3.7024 0 0.2668 0 1.2107 0 0.2668 0 3.7093 0c0.1473,0 0.2668,0.1195 0.2668,0.2668l0 0.0069 0 4.9814 0 0.2668 0 1.2108 0 0.2668 0 4.9283c0,0.1473 -0.1195,0.2668 -0.2668,0.2668l-0.0069 0 -3.7024 0 -0.2668 0 -1.2107 0 -0.2668 0 -3.7094 0c-0.1472,0 -0.2668,-0.1195 -0.2668,-0.2668l0 -0.0069 0 -11.6541c0,-0.1473 0.1196,-0.2668 0.2668,-0.2668zm5.4537 0.5336l0 4.7215 3.4425 0 0 -4.7215 -3.4425 0zm3.4425 6.4659l-3.4425 0 0 4.6615 3.4425 0 0 -4.6615zm-5.1868 4.6615l0 -4.6615 -3.4426 0 0 4.6615 3.4426 0zm-3.4426 -6.4059l3.4426 0 0 -4.7215 -3.4426 0 0 4.7215zm3.9762 -4.7215l0 4.9883 0 0.2668 -0.2668 0 -3.7091 0 0 0.6772 3.7091 0 0.2668 0 0 0.2668 0 4.9283 0.6771 0 0 -4.9283 0 -0.2668 0.2668 0 3.7093 0 0 -0.6772 -3.7093 0 -0.2668 0 0 -0.2668 0 -4.9883 -0.6771 0z"></path><path class="fil0" d="M12.6272 4.7153c-0.1473,0 -0.2668,-0.1195 -0.2668,-0.2668 0,-0.1473 0.1195,-0.2668 0.2668,-0.2668 0.0037,0 1.3721,-0.0707 1.514,1.4922 0.0131,0.146 -0.0947,0.2756 -0.2406,0.2887 -0.1459,0.0131 -0.2756,-0.0947 -0.2887,-0.2406 -0.0958,-1.0544 -0.9823,-1.0067 -0.9847,-1.0067z"></path><circle class="fil1" cx="13.9486" cy="6.4127" r="0.271336"></circle></g></svg>