<svg xmlns="http://www.w3.org/2000/svg" data-name="Layer 1 copy 2" viewBox="0 0 100 125" x="0px" y="0px" fill="#ffffff"><title>charts</title><path d="M78.5,33A11.5,11.5,0,1,1,90,21.5,11.51341,11.51341,0,0,1,78.5,33Zm0-19A7.5,7.5,0,1,0,86,21.5,7.5082,7.5082,0,0,0,78.5,14Z"/><path d="M35.5,90A6.5,6.5,0,1,1,42,83.5,6.50753,6.50753,0,0,1,35.5,90Zm0-9A2.5,2.5,0,1,0,38,83.5,2.50232,2.50232,0,0,0,35.5,81Z"/><path d="M65.5,90a26,26,0,1,1,26-26A26.02885,26.02885,0,0,1,65.5,90Zm0-48a22,22,0,1,0,22,22A22.02489,22.02489,0,0,0,65.5,42Z"/><path d="M33,42A16,16,0,1,1,49,26,16.01833,16.01833,0,0,1,33,42Zm0-28A12,12,0,1,0,45,26,12.01312,12.01312,0,0,0,33,14Z"/><path d="M51.87793,65.35156a2.0001,2.0001,0,0,1-2-2A14.99015,14.99015,0,0,1,64.85156,48.37793a2,2,0,0,1,0,4A10.98619,10.98619,0,0,0,53.87793,63.35156,2.0001,2.0001,0,0,1,51.87793,65.35156Z"/><path d="M26.53809,28a2.0001,2.0001,0,0,1-2-2A8.47137,8.47137,0,0,1,33,17.53809a2,2,0,0,1,0,4A4.46741,4.46741,0,0,0,28.53809,26,2.0001,2.0001,0,0,1,26.53809,28Z"/><path d="M75,24a2.0001,2.0001,0,0,1-2-2,6.00656,6.00656,0,0,1,6-6,2,2,0,0,1,0,4,2.00261,2.00261,0,0,0-2,2A2.0001,2.0001,0,0,1,75,24Z"/><path d="M21.5,74A11.5,11.5,0,1,1,33,62.5,11.51341,11.51341,0,0,1,21.5,74Zm0-19A7.5,7.5,0,1,0,29,62.5,7.5082,7.5082,0,0,0,21.5,55Z"/><path d="M18,65a2.0001,2.0001,0,0,1-2-2,6.00656,6.00656,0,0,1,6-6,2,2,0,0,1,0,4,2.00261,2.00261,0,0,0-2,2A2.0001,2.0001,0,0,1,18,65Z"/><text x="0" y="115" fill="#ffffff" font-size="5px" font-weight="bold" font-family="'Helvetica Neue', Helvetica, Arial-Unicode, Arial, Sans-serif">Created by Ilsur Aptukov</text><text x="0" y="120" fill="#ffffff" font-size="5px" font-weight="bold" font-family="'Helvetica Neue', Helvetica, Arial-Unicode, Arial, Sans-serif">from the Noun Project</text></svg>