<svg xmlns="http://www.w3.org/2000/svg" xmlns:xlink="http://www.w3.org/1999/xlink" viewBox="0 0 64 80" version="1.1" x="0px" y="0px"><title>3</title><desc>Created with Sketch.</desc><g stroke="none" stroke-width="1" fill="none" fill-rule="evenodd"><g fill-rule="nonzero" fill="#000000"><path d="M11,4 L11,59 L30,59 L30,4 L11,4 Z M10,2 L31,2 C31.5522847,2 32,2.44771525 32,3 L32,60 C32,60.5522847 31.5522847,61 31,61 L10,61 C9.44771525,61 9,60.5522847 9,60 L9,3 C9,2.44771525 9.44771525,2 10,2 Z M26,24.9999454 L28,24.9999454 L28,36.9999454 L26,36.9999454 L26,24.9999454 Z M35,59 L54,59 L54,4 L35,4 L35,59 Z M34,2 L55,2 C55.5522847,2 56,2.44771525 56,3 L56,60 C56,60.5522847 55.5522847,61 55,61 L34,61 C33.4477153,61 33,60.5522847 33,60 L33,3 C33,2.44771525 33.4477153,2 34,2 Z M37,24.9999454 L39,24.9999454 L39,36.9999454 L37,36.9999454 L37,24.9999454 Z"/></g></g><text x="0" y="79" fill="#000000" font-size="5px" font-weight="bold" font-family="'Helvetica Neue', Helvetica, Arial-Unicode, Arial, Sans-serif">Created by Lero Keller</text><text x="0" y="84" fill="#000000" font-size="5px" font-weight="bold" font-family="'Helvetica Neue', Helvetica, Arial-Unicode, Arial, Sans-serif">from the Noun Project</text></svg>