<svg xmlns="http://www.w3.org/2000/svg" xmlns:xlink="http://www.w3.org/1999/xlink" version="1.1" x="0px" y="0px" viewBox="0 0 100 125" style="enable-background:new 0 0 100 100;" xml:space="preserve" fill="#ffffff"><path d="M12.6,95h73.9c3.4,0,6.1-2.7,6.1-6.1V11.1c0-3.4-2.7-6.1-6.1-6.1H12.6c-3.4,0-6.1,2.7-6.1,6.1v77.8C6.5,92.3,9.2,95,12.6,95  z M86.5,91.5H12.6c-1.4,0-2.5-1.1-2.5-2.5v-59h79v59C89,90.3,87.9,91.5,86.5,91.5z M12.6,8.6h73.9c1.4,0,2.5,1.1,2.5,2.5v15.2h-79  V11.1C10.1,9.8,11.2,8.6,12.6,8.6z"/><path d="M77.5,38.2H21.8c-3.4,0-6.1,2.7-6.1,6.1v33.4c0,3.4,2.7,6.1,6.1,6.1h55.7c3.4,0,6.1-2.7,6.1-6.1V44.3  C83.6,40.9,80.9,38.2,77.5,38.2z M21.8,41.8h55.7c1.4,0,2.5,1.1,2.5,2.5v20.2c-20-2.8-40.8-2.8-60.7,0V44.3  C19.3,42.9,20.4,41.8,21.8,41.8z M77.5,80.2H21.8c-1.4,0-2.5-1.1-2.5-2.5v-9.5c19.9-2.9,40.8-2.9,60.7,0v9.5  C80,79.1,78.9,80.2,77.5,80.2z"/><circle cx="22.8" cy="17.9" r="3.9"/><circle cx="32.8" cy="17.9" r="2"/><circle cx="39.7" cy="17.9" r="2"/><circle cx="46.4" cy="17.9" r="2"/><text x="0" y="115" fill="#ffffff" font-size="5px" font-weight="bold" font-family="'Helvetica Neue', Helvetica, Arial-Unicode, Arial, Sans-serif">Created by tracy tam</text><text x="0" y="120" fill="#ffffff" font-size="5px" font-weight="bold" font-family="'Helvetica Neue', Helvetica, Arial-Unicode, Arial, Sans-serif">from the Noun Project</text></svg>