<svg xmlns="http://www.w3.org/2000/svg" xmlns:xlink="http://www.w3.org/1999/xlink" version="1.1" x="0px" y="0px" viewBox="0 0 60 75" enable-background="new 0 0 60 60" xml:space="preserve" fill="#ffffff"><g><path d="M52.24,1l-1.79-0.89c-0.01-0.01-0.03-0.01-0.04-0.01c-0.02-0.01-0.04-0.02-0.07-0.02c-0.1-0.04-0.2-0.06-0.3-0.06   C50.03,0.01,50.01,0,50,0h-3c-0.55,0-1,0.45-1,1H14c0-0.55-0.45-1-1-1h-3C9.99,0,9.97,0.01,9.96,0.01c-0.1,0-0.2,0.02-0.3,0.06   C9.63,0.08,9.61,0.08,9.59,0.09C9.58,0.1,9.56,0.1,9.55,0.11L7.76,1H0v59h5v-2.38l4.55,2.28c0.01,0,0.02,0,0.03,0.01   C9.71,59.96,9.85,60,10,60h3c0.55,0,1-0.45,1-1v-2h32v2c0,0.55,0.45,1,1,1h3c0.15,0,0.29-0.04,0.42-0.1c0.01,0,0.02,0,0.03-0.01   L55,57.62V60h5V1H52.24z M46,3v1H31h-2H14V3H46z M46,14H31V6h15V14z M46,24H31v-8h15V24z M46,34h-1.18c0.11-0.31,0.18-0.65,0.18-1   c0-0.77-0.3-1.47-0.78-2C44.7,30.47,45,29.77,45,29c0-1.65-1.35-3-3-3h4V34z M34,33c0-0.55,0.45-1,1-1h7c0.55,0,1,0.45,1,1   s-0.45,1-1,1h-7C34.45,34,34,33.55,34,33z M42,30h-7c-0.55,0-1-0.45-1-1s0.45-1,1-1h7c0.55,0,1,0.45,1,1S42.55,30,42,30z M32,29   c0,0.77,0.3,1.47,0.78,2C32.3,31.53,32,32.23,32,33c0,0.35,0.07,0.69,0.18,1H31v-8h4C33.35,26,32,27.35,32,29z M29,26v8v2v8h-1.18   c0.11-0.31,0.18-0.65,0.18-1c0-1.65-1.35-3-3-3h-7c-1.65,0-3,1.35-3,3c0,0.35,0.07,0.69,0.18,1H14V21h2v2c0,0.55,0.45,1,1,1   s1-0.45,1-1v-2h1v2c0,0.55,0.45,1,1,1s1-0.45,1-1v-2h1v2c0,0.55,0.45,1,1,1s1-0.45,1-1v-2h1v2c0,0.55,0.45,1,1,1s1-0.45,1-1v-2h2v3   V26z M17,43c0-0.55,0.45-1,1-1h7c0.55,0,1,0.45,1,1s-0.45,1-1,1h-7C17.45,44,17,43.55,17,43z M29,19h-2v-1c0-0.55-0.45-1-1-1   s-1,0.45-1,1v1h-1v-1c0-0.55-0.45-1-1-1s-1,0.45-1,1v1h-1v-1c0-0.55-0.45-1-1-1s-1,0.45-1,1v1h-1v-1c0-0.55-0.45-1-1-1s-1,0.45-1,1   v1h-2v-3h15V19z M29,14H14V6h15V14z M14,46h4h7h4v6H14V46z M31,46h15v6H31V46z M46,44H31v-8h4h7h4V44z M3,58H2V3h1.76L3.55,3.11   c0,0,0,0,0,0L3,3.38V4v52V58z M5,4.62l4-2v54.76l-4-2V4.62z M12,58h-1V2h1v2v50v3V58z M14,55v-1h15h2h15v1H14z M48,57v-3v-8V36v-2   v-8v-2v-8v-2V4V2h1v56h-1V57z M51,57.38V2.62l4,2v50.76L51,57.38z M58,58h-1v-2V4V3.38l-0.55-0.28c0,0,0,0,0,0L56.24,3H58V58z"/><path d="M33,13h11c0.55,0,1-0.45,1-1s-0.45-1-1-1H33c-0.55,0-1,0.45-1,1S32.45,13,33,13z"/></g><text x="0" y="75" fill="#ffffff" font-size="5px" font-weight="bold" font-family="'Helvetica Neue', Helvetica, Arial-Unicode, Arial, Sans-serif">Created by Ben Davis</text><text x="0" y="80" fill="#ffffff" font-size="5px" font-weight="bold" font-family="'Helvetica Neue', Helvetica, Arial-Unicode, Arial, Sans-serif">from the Noun Project</text></svg>