<svg xmlns="http://www.w3.org/2000/svg" xmlns:xlink="http://www.w3.org/1999/xlink" version="1.1" x="0px" y="0px" viewBox="0 0 64 80" style="enable-background:new 0 0 64 64;" xml:space="preserve" fill="#ffffff"><g><rect x="34" y="38" width="2" height="15"/><rect x="34" y="55" width="2" height="2"/><rect x="40" y="38" width="2" height="15"/><rect x="40" y="55" width="2" height="2"/><path d="M60,38h-6.292c-0.679-3.559-2.542-6.696-5.161-9H57v-8.532l4.312-1.232C62.307,18.953,63,18.033,63,17   c0-1.033-0.693-1.952-1.688-2.236L57,13.532V5H27V1H15v8v1v1H3c-1.103,0-2,0.897-2,2v8c0,1.103,0.897,2,2,2h0.382l8.383,16.767   L1,60.758V63h5.618L15,46.236L23.382,63H29v-2.242L18.235,39.767L21.618,33H27v-4h6.32C31.17,32.99,30,38.83,30,41v22h15h1h8v-3h6   c1.654,0,3-1.346,3-3V41C63,39.346,61.654,38,60,38z M54,44h3v10h-3V44z M33,7h5.586L33,12.586V7z M33,15.414L41.414,7H47v1.586   l-14,14V15.414z M47,27h-1.271c-0.953-0.528-1.964-0.965-3.023-1.292L47,21.414V27z M60.764,16.687C60.902,16.727,61,16.855,61,17   s-0.098,0.273-0.236,0.313L57,18.389v-2.777L60.764,16.687z M55,27h-6V7h6V27z M17,10.08c0.935,0.135,1.809,0.453,2.587,0.92H17   V10.08z M3,13h18.736C22.53,14.135,23,15.513,23,17s-0.47,2.865-1.264,4H3V13z M15.236,33L15,33.459L9.637,23H15v1v1v8H15.236z    M17,23h2.587c-0.778,0.467-1.652,0.785-2.587,0.92V23z M5.382,61H3.124l9.751-19.014L13.882,44L5.382,61z M24.618,61l-19-38h1.771   l19.487,38H24.618z M17.103,37.559l-0.979-1.908L17.483,33h1.899L17.103,37.559z M25,27v4h-8v-5.055c4.494-0.499,8-4.32,8-8.945   s-3.506-8.446-8-8.945V3h8v4h6v20H25z M33,27v-1.586l14-14v7.172l-6.612,6.612C39.607,25.081,38.813,25,38,25   c-1.265,0-2.396,0.779-3.381,2H33z M44,61H32V41c0-4.062,3.203-14,6-14s6,9.938,6,14V61z M52,61h-6V41   c0-2.456-1.497-9.61-4.218-13.467C47.668,29.189,52,34.592,52,41V61z M61,57c0,0.551-0.448,1-1,1h-6v-2h3c1.103,0,2-0.897,2-2V44   c0-1.103-0.897-2-2-2h-3v-1c0-0.338-0.03-0.668-0.051-1H60c0.552,0,1,0.449,1,1V57z"/></g><text x="0" y="79" fill="#ffffff" font-size="5px" font-weight="bold" font-family="'Helvetica Neue', Helvetica, Arial-Unicode, Arial, Sans-serif">Created by Eucalyp</text><text x="0" y="84" fill="#ffffff" font-size="5px" font-weight="bold" font-family="'Helvetica Neue', Helvetica, Arial-Unicode, Arial, Sans-serif">from the Noun Project</text></svg>