<svg xmlns:dc="http://purl.org/dc/elements/1.1/" xmlns:cc="http://creativecommons.org/ns#" xmlns:rdf="http://www.w3.org/1999/02/22-rdf-syntax-ns#" xmlns:svg="http://www.w3.org/2000/svg" xmlns="http://www.w3.org/2000/svg" xmlns:sodipodi="http://sodipodi.sourceforge.net/DTD/sodipodi-0.dtd" xmlns:inkscape="http://www.inkscape.org/namespaces/inkscape" version="1.1" x="0px" y="0px" viewBox="0 0 100 125" fill="#ffffff"><g transform="translate(0,-952.36218)"><path d="m 91.067498,1037.9727 a 2.0000048,2.0000048 0 1 1 0,3.9997 l -82.137396,0 a 2.0000048,2.0000048 0 1 1 0,-3.9997 l 82.137396,0 z" style="text-indent:0;text-transform:none;direction:ltr;block-progression:tb;baseline-shift:baseline;color:#ffffff;enable-background:accumulate;" fill="#ffffff" fill-opacity="1" fill-rule="evenodd" stroke="none" marker="none" visibility="visible" display="inline" overflow="visible"/><path d="m 56.177502,962.75459 a 2.0000048,2.0000048 0 0 1 1.7331,2.9978 l -2.7106,4.7081 a 0,0 0 0 0 0,0 l -2.4425,4.2297 0,4.2163 c 22.992996,1.4272 41.242496,20.5992 41.242496,44.00061 0,2.7991 -0.2617,5.5444 -0.7725,8.2053 a 2.0000048,2.0000048 0 0 1 -1.964,1.6228 l -82.526896,0 a 2.0000048,2.0000048 0 0 1 -1.9659,-1.6334 c -0.4935,-2.6471 -0.7707,-5.3886 -0.7707,-8.1947 0,-23.90801 19.0515,-43.41181 42.7578,-44.07601 l 0,-4.1356 -0.2558,-0.4387 a 2.0000048,2.0000048 0 0 1 -0.01,-0.01 l -2.1825,-3.7888 a 2.0000048,2.0000048 0 0 1 0,-3e-4 l -2.7106,-4.7081 a 2.0000048,2.0000048 0 0 1 1.7331,-2.9978 l 5.4209,0 5.4213,0 z m -3.4588,3.9997 -1.9625,0 -1.9621,0 0.9847,1.7103 0,3e-4 0.9759,1.6947 0.9787,-1.6947 0,0 0.9837,-1.7084 z m -2.7131,16.0606 c -22.1168,0 -40.0072,17.92491 -40.0072,40.09441 0,1.9752 0.1522,3.9219 0.4317,5.8284 l 79.142996,0 c 0.2813,-1.9002 0.4263,-3.8469 0.4263,-5.8284 0,-21.8263 -17.3453,-39.52641 -38.968996,-40.07351 a 2.0000048,2.0000048 0 0 1 -0.596,-0.01 c -0.2709,-10e-5 -0.4233,-0.014 -0.4288,-0.014 z" style="text-indent:0;text-transform:none;direction:ltr;block-progression:tb;baseline-shift:baseline;color:#ffffff;enable-background:accumulate;" fill="#ffffff" fill-opacity="1" fill-rule="evenodd" stroke="none" marker="none" visibility="visible" display="inline" overflow="visible"/><path d="m 53.634702,987.38179 c 6.2787,0.091 13.762196,4.3507 19.984996,10.8668 6.2228,6.51621 11.107,15.47231 11.01,25.37661 a 2.0000048,2.0000048 0 1 1 -3.9994,-0.039 c 0.084,-8.552 -4.2271,-16.6314 -9.9031,-22.575 -5.6759,-5.94361 -12.794796,-9.56721 -17.149996,-9.63001 a 2.0000048,2.0000048 0 1 1 0.057,-3.9994 z" style="text-indent:0;text-transform:none;direction:ltr;block-progression:tb;baseline-shift:baseline;color:#ffffff;enable-background:accumulate;" fill="#ffffff" fill-opacity="1" fill-rule="evenodd" stroke="none" marker="none" visibility="visible" display="inline" overflow="visible"/></g><text x="0" y="115" fill="#ffffff" font-size="5px" font-weight="bold" font-family="'Helvetica Neue', Helvetica, Arial-Unicode, Arial, Sans-serif">Created by chabib ali machbubi</text><text x="0" y="120" fill="#ffffff" font-size="5px" font-weight="bold" font-family="'Helvetica Neue', Helvetica, Arial-Unicode, Arial, Sans-serif">from the Noun Project</text></svg>