<svg xmlns="http://www.w3.org/2000/svg" xmlns:xlink="http://www.w3.org/1999/xlink" version="1.1" x="0px" y="0px" viewBox="0 0 64 80" style="enable-background:new 0 0 64 64;" xml:space="preserve"><g><path d="M60.926,33C60.97,32.332,61,31.664,61,31C61,14.458,47.542,1,31,1S1,14.458,1,31c0,16.276,13.032,29.557,29.208,29.98   c-0.078,0.28-0.146,0.564-0.194,0.856L29.819,63h28.361l-0.194-1.164c-0.397-2.384-1.788-4.368-3.705-5.575   C59.349,54.485,63,49.667,63,44V33H60.926z M31.05,58.999C31.034,58.999,31.017,59,31,59C15.561,59,3,46.439,3,31S15.561,3,31,3   s28,12.561,28,28c0,0.664-0.033,1.333-0.08,2h-5.021C53.959,32.324,54,31.654,54,31C54,18.317,43.683,8,31,8S8,18.317,8,31   c0,12.234,9.478,22.232,21.641,22.942c1.195,1.006,2.575,1.792,4.078,2.319C32.631,56.946,31.713,57.88,31.05,58.999z    M27.549,51.698C17.528,50.053,10,41.418,10,31c0-11.579,9.421-21,21-21s21,9.421,21,21c0,0.651-0.045,1.323-0.111,2H25v11   C25,46.883,25.955,49.54,27.549,51.698z M32.298,61c0.889-2.375,3.161-4,5.785-4h11.834c2.624,0,4.896,1.625,5.785,4H32.298z    M61,44c0,6.065-4.935,11-11,11h-0.083H38.083H38c-6.065,0-11-4.935-11-11v-9h34V44z"/><path d="M33.646,51.875l0.971-1.748C32.386,48.889,31,46.541,31,44v-7h-2v7C29,47.267,30.78,50.284,33.646,51.875z"/><path d="M38,51c-0.595,0-1.184-0.074-1.752-0.222l-0.502,1.936C36.479,52.904,37.236,53,38,53V51z"/><path d="M31,12c-8.935,0-16.554,6.077-18.529,14.778l1.951,0.443C16.188,19.437,23.006,14,31,14V12z"/><path d="M12,31h2c0-0.631,0.035-1.267,0.104-1.891l-1.988-0.219C12.039,29.587,12,30.297,12,31z"/></g><text x="0" y="79" fill="#000000" font-size="5px" font-weight="bold" font-family="'Helvetica Neue', Helvetica, Arial-Unicode, Arial, Sans-serif">Created by Eucalyp</text><text x="0" y="84" fill="#000000" font-size="5px" font-weight="bold" font-family="'Helvetica Neue', Helvetica, Arial-Unicode, Arial, Sans-serif">from the Noun Project</text></svg>