<svg xmlns:dc="http://purl.org/dc/elements/1.1/" xmlns:cc="http://creativecommons.org/ns#" xmlns:rdf="http://www.w3.org/1999/02/22-rdf-syntax-ns#" xmlns:svg="http://www.w3.org/2000/svg" xmlns="http://www.w3.org/2000/svg" xmlns:sodipodi="http://sodipodi.sourceforge.net/DTD/sodipodi-0.dtd" xmlns:inkscape="http://www.inkscape.org/namespaces/inkscape" version="1.1" x="0px" y="0px" viewBox="0 0 100 125"><g transform="translate(0,-952.36218)"><path style="text-indent:0;text-transform:none;direction:ltr;block-progression:tb;baseline-shift:baseline;color:#000000;enable-background:accumulate;" d="m 36.216401,957.36239 c -0.679406,-0.005 -1.371823,0.0994 -2.041541,0.31013 -5.357736,1.68591 -8.162487,9.93941 -6.248352,18.32869 1.914135,8.38928 7.881346,13.87404 13.239083,12.18812 5.357737,-1.68593 8.162487,-9.93942 6.248353,-18.3287 -1.674869,-7.34061 -6.4417,-12.46173 -11.197543,-12.49824 z m 26.663761,0 c -4.755843,0.0365 -9.522674,5.15763 -11.197542,12.49824 -1.914135,8.38928 0.890616,16.64277 6.248352,18.3287 5.357737,1.68592 11.324949,-3.79884 13.239084,-12.18812 1.914135,-8.38928 -0.890616,-16.64278 -6.248353,-18.32869 -0.669717,-0.21074 -1.362135,-0.31535 -2.041541,-0.31013 z m -25.983247,7.31907 c 2.535152,0.003 5.039692,2.69518 5.939028,6.63679 1.027813,4.50471 -0.432882,8.8018 -3.309771,9.70707 -2.876889,0.90529 -5.99385,-1.97701 -7.021663,-6.48172 -1.027813,-4.50471 0.432882,-8.8018 3.309771,-9.70708 0.359611,-0.11315 0.72047,-0.15542 1.082635,-0.15506 z m 25.302734,0 c 0.362165,-3.6e-4 0.723024,0.0419 1.082635,0.15506 2.876889,0.90528 4.337584,5.20237 3.309771,9.70708 -1.027813,4.50471 -4.144774,7.38701 -7.021663,6.48172 -2.876889,-0.90527 -4.337584,-5.20236 -3.309771,-9.70707 0.899336,-3.94161 3.403875,-6.63428 5.939028,-6.63679 z m -47.759684,6.57476 c -0.679406,-0.005 -1.371823,0.0994 -2.041541,0.31013 -5.3577362,1.68592 -8.162487,9.93941 -6.2483522,18.3287 1.914135,8.38927 7.8813462,13.87405 13.2390832,12.18815 5.357737,-1.686 8.162487,-9.93946 6.248353,-18.32873 -1.674869,-7.34062 -6.4417,-12.46174 -11.197543,-12.49825 z m 70.216633,0 c -4.755842,0.0365 -9.522674,5.15763 -11.197542,12.49825 -1.914135,8.38927 0.890616,16.64273 6.248352,18.32873 5.357737,1.6859 11.324949,-3.79888 13.239084,-12.18815 1.914135,-8.38929 -0.890616,-16.64278 -6.248353,-18.3287 -0.669717,-0.21074 -1.362135,-0.31534 -2.041541,-0.31013 z m -69.536119,7.31907 c 2.535152,0.003 5.039692,2.69518 5.939028,6.63679 1.027813,4.50471 -0.432882,8.8018 -3.309771,9.70708 -2.876889,0.90528 -5.99385,-1.97702 -7.021663,-6.48172 -1.0278136,-4.50471 0.432881,-8.80181 3.30977,-9.70708 0.359612,-0.11316 0.720471,-0.15542 1.082636,-0.15507 z m 68.855606,0 c 0.362165,-3.5e-4 0.723024,0.0419 1.082635,0.15507 2.876889,0.90527 4.337584,5.20237 3.309771,9.70708 -1.027813,4.5047 -4.144774,7.387 -7.021663,6.48172 -2.876889,-0.90528 -4.337584,-5.20237 -3.309771,-9.70708 0.899336,-3.94161 3.403876,-6.63428 5.939028,-6.63679 z m -34.427803,8.24947 c -6.333348,0 -10.760281,3.86005 -13.888665,8.03237 -3.128384,4.17232 -5.504499,8.85347 -8.135231,11.81597 -2.024555,2.2799 -5.183726,4.4539 -8.073366,7.288 -2.88964,2.8341 -5.536906,6.6985 -5.536906,11.8781 0,11.6652 8.747194,21.523 20.786598,21.523 3.787737,0 6.658658,-1.9522 9.032272,-3.4425 2.373613,-1.4902 4.252927,-2.512 5.815298,-2.512 1.562371,0 3.441791,1.0217 5.815298,2.512 2.373507,1.4904 5.24416,3.4425 9.032272,3.4425 12.039403,0 20.786598,-9.8578 20.786598,-21.523 0,-5.1796 -2.647266,-9.044 -5.536906,-11.8781 -2.88964,-2.8341 -6.048811,-5.0081 -8.073367,-7.288 -2.630731,-2.9625 -5.006848,-7.64365 -8.135231,-11.81597 -3.128383,-4.17232 -7.555316,-8.03237 -13.888664,-8.03237 z m 0,5.9545 c 4.04199,0 6.492953,2.12368 9.156001,5.67538 2.663049,3.55176 4.991899,8.30376 8.413623,12.15706 2.726927,3.0708 5.995322,5.2871 8.351759,7.5983 2.356436,2.3111 3.773757,4.3617 3.773757,7.6292 0,8.811 -5.937078,15.5685 -14.84757,15.5685 -1.610105,0 -3.50905,-1.0561 -5.877163,-2.5431 -2.368113,-1.4869 -5.202337,-3.4114 -8.970407,-3.4114 -3.76807,0 -6.602086,1.9245 -8.970407,3.4114 -2.368321,1.487 -4.26794,2.5431 -5.877163,2.5431 -8.910492,0 -14.84757,-6.7575 -14.84757,-15.5685 0,-3.2675 1.417321,-5.3181 3.773757,-7.6292 2.356436,-2.3112 5.624832,-4.5275 8.351758,-7.5983 3.421724,-3.8533 5.750575,-8.6053 8.413623,-12.15706 2.663049,-3.5517 5.114011,-5.67538 9.156002,-5.67538 z" fill="#000000" fill-opacity="1" stroke="none" marker="none" visibility="visible" display="inline" overflow="visible"/></g><text x="0" y="115" fill="#000000" font-size="5px" font-weight="bold" font-family="'Helvetica Neue', Helvetica, Arial-Unicode, Arial, Sans-serif">Created by sevgenjory</text><text x="0" y="120" fill="#000000" font-size="5px" font-weight="bold" font-family="'Helvetica Neue', Helvetica, Arial-Unicode, Arial, Sans-serif">from the Noun Project</text></svg>