<svg xmlns="http://www.w3.org/2000/svg" xmlns:xlink="http://www.w3.org/1999/xlink" version="1.1" x="0px" y="0px" viewBox="0 0 100 125" enable-background="new 0 0 100 100" xml:space="preserve"><g><path fill="none" d="M64.586,6.262L34.051,6.246c-2.512,0-4.715,2.204-4.715,4.717V85.61c0,2.512,2.203,4.715,4.716,4.715h30.55   c2.511,0,4.716-2.203,4.716-4.715V10.962C69.317,8.458,67.106,6.262,64.586,6.262z"/><path fill="#000000" d="M64.588,2.22L34.052,2.203c-4.748,0-8.759,4.012-8.759,8.76V85.61c0,4.153,3.07,7.743,7.019,8.575   c0.563,0.12,1.146,0.183,1.74,0.183h3.578h21.964h5.008c0.111,0,0.218-0.013,0.326-0.018c4.603-0.18,8.433-4.104,8.433-8.74V10.962   C73.36,6.223,69.343,2.22,64.588,2.22z M34.051,6.246l30.535,0.017c2.521,0,4.731,2.196,4.731,4.7v18.654H29.336V10.962   C29.336,8.45,31.539,6.246,34.051,6.246z M64.602,90.325h-30.55c-2.513,0-4.716-2.203-4.716-4.715V32.311h39.981V85.61   C69.317,88.122,67.112,90.325,64.602,90.325z"/><g><path fill="#000000" d="M35.396,26.246h-0.442c-0.743,0-1.351-0.607-1.351-1.351V10.518c0-0.743,0.607-1.35,1.351-1.35h0.442    c0.741,0,1.35,0.606,1.35,1.35v14.377C36.746,25.638,36.138,26.246,35.396,26.246"/></g><g><path fill="#000000" d="M35.396,83.368h-0.442c-0.743,0-1.351-0.608-1.351-1.349V37.035c0-0.742,0.607-1.35,1.351-1.35h0.442    c0.741,0,1.35,0.607,1.35,1.35V82.02C36.746,82.76,36.138,83.368,35.396,83.368"/></g><path fill="#000000" d="M36.988,97.888c1.48,0,2.682-1.195,2.693-2.675h-5.386C34.308,96.692,35.507,97.888,36.988,97.888z"/><path fill="#000000" d="M61.663,97.888c1.48,0,2.682-1.195,2.693-2.675h-5.385C58.981,96.692,60.182,97.888,61.663,97.888z"/></g><text x="0" y="115" fill="#000000" font-size="5px" font-weight="bold" font-family="'Helvetica Neue', Helvetica, Arial-Unicode, Arial, Sans-serif">Created by Rafael Garcia Motta</text><text x="0" y="120" fill="#000000" font-size="5px" font-weight="bold" font-family="'Helvetica Neue', Helvetica, Arial-Unicode, Arial, Sans-serif">from the Noun Project</text></svg>